<svg xmlns="http://www.w3.org/2000/svg" version="1.1" xmlns:xlink="http://www.w3.org/1999/xlink" xmlns:svgjs="http://svgjs.com/svgjs" width="1920" height="1080" preserveAspectRatio="none" viewBox="0 0 1920 1080"><g mask="url(&quot;#SvgjsMask1480&quot;)" fill="none"><rect width="1920" height="1080" x="0" y="0" fill="rgba(15, 15, 15, 1)"></rect><path d="M43.55 270C43.55 249.86 4.5 257.02 0 229.09C-17.27 122.02 -61.97 52.58 0 0C73.03 -61.97 135 0 270 0C405 0 405 0 540 0C675 0 675 0 810 0C909.18 0 916.92 -20.86 1008.37 0C1051.92 9.93 1039.81 61.58 1080 61.58C1143.13 61.58 1144.31 16.12 1215 0C1279.31 -14.67 1282.5 0 1350 0C1485 0 1485 0 1620 0C1755 0 1755 0 1890 0C2025 0 2061.82 -36.82 2160 0C2196.82 13.81 2172.96 53.31 2160 101.25C2136.47 188.31 2087.03 183.9 2087.03 270C2087.03 380.77 2129.35 381.58 2160 495C2165.83 516.58 2160 517.5 2160 540C2160 571.76 2176.13 577.48 2160 603.53C2092.56 712.48 1992.86 729.51 1992.86 810C1992.86 864.09 2121.34 810.22 2160 872.68C2204.91 945.22 2218.64 1034.98 2160 1080C2083.64 1138.64 2025 1080 1890 1080C1755 1080 1755 1080 1620 1080C1485 1080 1485 1080 1350 1080C1215 1080 1215 1080 1080 1080C945 1080 945 1080 810 1080C675 1080 675 1080 540 1080C435.17 1080 381.98 1138.84 330.35 1080C263.51 1003.84 329 938.72 303.06 810C298.83 789 288.12 780.55 270 780.55C245.46 780.55 242.4 792.97 217.74 810C107.4 886.19 68.7 966.98 0 966.98C-40.17 966.98 0 888.49 0 810C0 675 0 675 0 540C0 424.28 -17.4 416.45 0 308.57C4.37 281.45 43.55 289.6 43.55 270" stroke="rgba(118, 106, 200, 0.43)" stroke-width="2"></path><path d="M810 226.05C794.18 226.05 796.27 248.58 780.92 270C683.77 405.56 576.45 442.01 585 540C590.99 608.65 695.17 589.86 810 603.28C942.67 618.79 961.57 623.63 1080 597.86C1106.96 591.99 1100.77 566.09 1100.77 540C1100.77 528.55 1089.23 532.6 1080 522.77C962.38 397.6 962.72 397.1 847.06 270C827.72 248.74 827.25 226.05 810 226.05" stroke="rgba(118, 106, 200, 0.43)" stroke-width="2"></path><path d="M1620 199.69C1560.6 199.69 1495 225.66 1495 270C1495 325.72 1563.5 399.81 1620 399.81C1668.72 399.81 1705.44 328.45 1705.44 270C1705.44 228.39 1665.82 199.69 1620 199.69" stroke="rgba(118, 106, 200, 0.43)" stroke-width="2"></path><path d="M1620 731.84C1508.39 731.84 1391.54 771.8 1391.54 810C1391.54 848 1508.17 884.25 1620 884.25C1700.56 884.25 1776.32 847.91 1776.32 810C1776.32 771.71 1700.78 731.84 1620 731.84" stroke="rgba(118, 106, 200, 0.43)" stroke-width="2"></path><path d="M261.29 270C261.29 149.19 122.27 150.9 0 24.55C-8.37 15.9 -11.25 1.02 0 0C123.75 -11.25 135 0 270 0C405 0 405 0 540 0C675 0 675 0 810 0C840.31 0 870.61 -13.73 870.61 0C870.61 20.81 836.72 31.79 810 69.07C739.95 166.79 748.86 173.52 677.08 270C613.86 354.99 614.23 356.72 540 432C481.12 491.72 475.43 486 410.87 540C340.43 598.91 346.44 607.59 270 657.82C141 742.59 72.15 841.48 0 810C-62.85 782.57 0 675 0 540C0 520.72 -13 514.86 0 501.43C117.65 379.86 261.29 387.63 261.29 270" stroke="rgba(118, 106, 200, 0.43)" stroke-width="2"></path><path d="M979.41 270C979.41 222.58 1018.38 191.22 1080 180C1203.68 157.47 1234.91 166.78 1350 202.5C1379.91 211.78 1347.94 243.27 1370 270C1482.94 406.83 1480.07 431.49 1620 529.62C1672.57 566.49 1755 533.86 1755 540C1755 546.16 1686.16 539.94 1620 554.21C1483.66 583.62 1472.38 632.37 1350 627.35C1299.3 625.27 1316.39 579.1 1273.85 540C1181.39 455 1172.63 464.09 1080 379.15C1025.41 329.09 979.41 322.15 979.41 270" stroke="rgba(118, 106, 200, 0.43)" stroke-width="2"></path><path d="M1620 129.38C1517.85 57.75 1405.86 34.86 1405.86 0C1405.86 -29.83 1512.93 0 1620 0C1755 0 1755 0 1890 0C1980 0 2049.3 -52.83 2070 0C2102.2 82.17 2041.31 137.9 1995.81 270C1951.31 399.19 1941.47 522.58 1890 522.58C1839.01 522.58 1865.24 378.28 1790.89 270C1730.24 181.68 1710.36 192.75 1620 129.38" stroke="rgba(118, 106, 200, 0.43)" stroke-width="2"></path><path d="M440.82 810C464.65 738.37 472.29 707.07 540 688.5C656.88 656.44 682.86 673.68 810 708.75C903.13 734.43 948.12 731.49 980.53 810C1024.74 917.11 1017.67 993.81 963.24 1080C932.41 1128.81 886.62 1080 810 1080C675 1080 675 1080 540 1080C474.88 1080 425.83 1123.74 409.76 1080C376.24 988.74 399.53 934.12 440.82 810" stroke="rgba(118, 106, 200, 0.43)" stroke-width="2"></path><path d="M1170 1080C1170 1035.2 1250.2 928.9 1350 922.91C1475.2 915.4 1483.3 1048.39 1620 1053C1753.3 1057.5 1750.89 956.54 1890 941.14C2020.89 926.65 2057.39 940.44 2160 993.21C2192.39 1009.87 2192.84 1069.44 2160 1080C2057.84 1112.84 2025 1080 1890 1080C1755 1080 1755 1080 1620 1080C1485 1080 1485 1080 1350 1080C1260 1080 1170 1113.75 1170 1080" stroke="rgba(118, 106, 200, 0.43)" stroke-width="2"></path><path d="M472.5 270C428.74 149.69 403.58 95.68 427.5 0C437.33 -39.32 483.75 0 540 0C575.53 0 607.62 -27.91 611.05 0C624.23 107.09 603.12 139.91 573.23 270C567.59 294.55 560 309.27 540 309.27C509.64 309.27 484.99 304.32 472.5 270" stroke="rgba(118, 106, 200, 0.43)" stroke-width="2"></path><path d="M1620 59.06C1574.68 24.5 1522.24 15.91 1522.24 0C1522.24 -13.62 1571.12 0 1620 0C1755 0 1755 0 1890 0C1893.46 0 1896.74 -3.37 1896.92 0C1904.03 131.63 1907.63 136.28 1904.59 270C1904.17 288.7 1897.1 304.84 1890 304.84C1882.97 304.84 1890.01 282.45 1876.33 270C1755.01 159.56 1751.72 159.5 1620 59.06" stroke="rgba(118, 106, 200, 0.43)" stroke-width="2"></path><path d="M489.18 1080C489.18 1005.53 486.01 892.17 540 892.17C619.42 892.17 756 1026.47 756 1080C756 1120.39 648 1080 540 1080C514.59 1080 489.18 1099.45 489.18 1080" stroke="rgba(118, 106, 200, 0.43)" stroke-width="2"></path><path d="M1310.63 1080C1310.63 1070.2 1328.19 1045.64 1350 1045.64C1381.62 1045.64 1417.5 1070.92 1417.5 1080C1417.5 1088.1 1383.75 1080 1350 1080C1330.32 1080 1310.63 1087.38 1310.63 1080" stroke="rgba(118, 106, 200, 0.43)" stroke-width="2"></path></g><defs><mask id="SvgjsMask1480"><rect width="1920" height="1080" fill="#ffffff"></rect></mask></defs></svg>